<svg width="208" height="208" viewBox="0 0 208 208" fill="none" xmlns="http://www.w3.org/2000/svg">
<path d="M1 104C1 160.885 47.1147 207 104 207C160.885 207 207 160.885 207 104C207 47.1147 160.885 1 104 1C47.1147 1 1 47.1147 1 104Z" fill="#961619" stroke="#CCCCCC" stroke-miterlimit="10"/>
<path d="M61.5 54C59.5109 54 57.6032 54.7902 56.1967 56.1967C54.7902 57.6032 54 59.5109 54 61.5V126.5C54 128.489 54.7902 130.397 56.1967 131.803C57.6032 133.21 59.5109 134 61.5 134H89V117.42C89 113.605 90.58 109.97 93.37 107.37L114 88.105V86.5C114 84.5109 113.21 82.6032 111.803 81.1967C110.397 79.7902 108.489 79 106.5 79H99V61.5C99 59.5109 98.2098 57.6032 96.8033 56.1967C95.3968 54.7902 93.4891 54 91.5 54H61.5ZM74 72.75C74 73.7446 73.6049 74.6984 72.9017 75.4017C72.1984 76.1049 71.2446 76.5 70.25 76.5C69.2554 76.5 68.3016 76.1049 67.5983 75.4017C66.8951 74.6984 66.5 73.7446 66.5 72.75C66.5 71.7554 66.8951 70.8016 67.5983 70.0983C68.3016 69.3951 69.2554 69 70.25 69C71.2446 69 72.1984 69.3951 72.9017 70.0983C73.6049 70.8016 74 71.7554 74 72.75ZM70.25 91.5C69.2554 91.5 68.3016 91.1049 67.5983 90.4016C66.8951 89.6984 66.5 88.7446 66.5 87.75C66.5 86.7554 66.8951 85.8016 67.5983 85.0984C68.3016 84.3951 69.2554 84 70.25 84C71.2446 84 72.1984 84.3951 72.9017 85.0984C73.6049 85.8016 74 86.7554 74 87.75C74 88.7446 73.6049 89.6984 72.9017 90.4016C72.1984 91.1049 71.2446 91.5 70.25 91.5ZM74 102.75C74 103.745 73.6049 104.698 72.9017 105.402C72.1984 106.105 71.2446 106.5 70.25 106.5C69.2554 106.5 68.3016 106.105 67.5983 105.402C66.8951 104.698 66.5 103.745 66.5 102.75C66.5 101.755 66.8951 100.802 67.5983 100.098C68.3016 99.3951 69.2554 99 70.25 99C71.2446 99 72.1984 99.3951 72.9017 100.098C73.6049 100.802 74 101.755 74 102.75ZM82.75 76.5C81.7554 76.5 80.8016 76.1049 80.0983 75.4017C79.3951 74.6984 79 73.7446 79 72.75C79 71.7554 79.3951 70.8016 80.0983 70.0983C80.8016 69.3951 81.7554 69 82.75 69C83.7446 69 84.6984 69.3951 85.4016 70.0983C86.1049 70.8016 86.5 71.7554 86.5 72.75C86.5 73.7446 86.1049 74.6984 85.4016 75.4017C84.6984 76.1049 83.7446 76.5 82.75 76.5ZM86.5 87.75C86.5 88.7446 86.1049 89.6984 85.4016 90.4016C84.6984 91.1049 83.7446 91.5 82.75 91.5C81.7554 91.5 80.8016 91.1049 80.0983 90.4016C79.3951 89.6984 79 88.7446 79 87.75C79 86.7554 79.3951 85.8016 80.0983 85.0984C80.8016 84.3951 81.7554 84 82.75 84C83.7446 84 84.6984 84.3951 85.4016 85.0984C86.1049 85.8016 86.5 86.7554 86.5 87.75ZM82.75 106.5C82.2575 106.5 81.7699 106.403 81.3149 106.215C80.86 106.026 80.4466 105.75 80.0983 105.402C79.7501 105.053 79.4739 104.64 79.2855 104.185C79.097 103.73 79 103.242 79 102.75C79 102.258 79.097 101.77 79.2855 101.315C79.4739 100.86 79.7501 100.447 80.0983 100.098C80.4466 99.7501 80.86 99.4739 81.3149 99.2855C81.7699 99.097 82.2575 99 82.75 99C83.7446 99 84.6984 99.3951 85.4016 100.098C86.1049 100.802 86.5 101.755 86.5 102.75C86.5 103.745 86.1049 104.698 85.4016 105.402C84.6984 106.105 83.7446 106.5 82.75 106.5ZM129.97 91.195C128.35 89.6829 126.216 88.842 124 88.842C121.784 88.842 119.65 89.6829 118.03 91.195L96.78 111.025C95.9024 111.844 95.2027 112.835 94.7244 113.936C94.2462 115.037 93.9996 116.225 94 117.425V146.5C94 148.489 94.7902 150.397 96.1967 151.803C97.6032 153.21 99.5109 154 101.5 154H111.5C113.489 154 115.397 153.21 116.803 151.803C118.21 150.397 119 148.489 119 146.5V134H129V146.5C129 148.489 129.79 150.397 131.197 151.803C132.603 153.21 134.511 154 136.5 154H146.5C148.489 154 150.397 153.21 151.803 151.803C153.21 150.397 154 148.489 154 146.5V117.425C154 116.225 153.754 115.037 153.276 113.936C152.797 112.835 152.098 111.844 151.22 111.025L129.97 91.195ZM123.145 96.675C123.377 96.4578 123.682 96.3368 124 96.3368C124.318 96.3368 124.623 96.4578 124.855 96.675L146.105 116.51C146.23 116.627 146.33 116.769 146.398 116.926C146.466 117.084 146.5 117.254 146.5 117.425V146.5H136.5V134C136.5 132.011 135.71 130.103 134.303 128.697C132.897 127.29 130.989 126.5 129 126.5H119C117.011 126.5 115.103 127.29 113.697 128.697C112.29 130.103 111.5 132.011 111.5 134V146.5H101.5V117.425C101.5 117.253 101.536 117.083 101.605 116.926C101.673 116.768 101.774 116.627 101.9 116.51L123.15 96.675H123.145ZM90.25 54H62.75H90.25Z" fill="white"/>
</svg>
