<svg width="25" height="25" viewBox="0 0 25 25" fill="none" xmlns="http://www.w3.org/2000/svg">
<path d="M15.7799 12.0475V7.68519C15.7799 7.22745 15.4069 6.85447 14.9491 6.85447H8.35681C7.89906 6.85447 7.52608 7.22745 7.52608 7.68519V16.6928C7.52608 17.1505 7.89906 17.5235 8.35681 17.5235H13.1077C12.8521 17.0097 12.7087 16.4306 12.7087 15.8177C12.7087 13.9619 14.0297 12.4087 15.7799 12.0475ZM9.09233 8.38941H14.361C14.7092 8.38941 14.9922 8.67241 14.9922 9.02061C14.9922 9.36881 14.7092 9.6518 14.361 9.6518H9.09233C8.74413 9.6518 8.46114 9.36881 8.46114 9.02061C8.46114 8.67241 8.74413 8.38941 9.09233 8.38941ZM11.3928 15.9898H9.09233C8.74413 15.9898 8.46114 15.7068 8.46114 15.3586C8.46114 15.0104 8.74413 14.7274 9.09233 14.7274H11.3928C11.741 14.7274 12.024 15.0104 12.024 15.3586C12.024 15.7068 11.741 15.9898 11.3928 15.9898ZM12.487 13.898H9.09233C8.74413 13.898 8.46114 13.615 8.46114 13.2668C8.46114 12.9186 8.74413 12.6356 9.09233 12.6356H12.487C12.8352 12.6356 13.1182 12.9186 13.1182 13.2668C13.1182 13.615 12.8352 13.898 12.487 13.898ZM9.09233 11.8232C8.74413 11.8232 8.46114 11.5402 8.46114 11.192C8.46114 10.8438 8.74413 10.5608 9.09233 10.5608H13.8002C14.1484 10.5608 14.4314 10.8438 14.4314 11.192C14.4314 11.5402 14.1484 11.8232 13.8002 11.8232H9.09233ZM12.5 0C5.59598 0 0 5.59598 0 12.5C0 19.404 5.59598 25 12.5 25C19.404 25 25 19.404 25 12.5C25 5.59598 19.404 0 12.5 0ZM16.5571 19.6675C15.626 19.6675 14.7718 19.3349 14.1054 18.7833C14.0962 18.7833 14.0884 18.7859 14.0793 18.7859H8.35811C7.20397 18.7859 6.265 17.8469 6.265 16.6928V7.68519C6.265 6.53105 7.20397 5.59207 8.35811 5.59207H14.9504C16.1046 5.59207 17.0436 6.53105 17.0436 7.68519V12.0005C18.9384 12.2392 20.4082 13.8602 20.4082 15.819C20.4082 17.9421 18.6815 19.6688 16.5584 19.6688L16.5571 19.6675ZM16.5571 13.1195C15.0691 13.1195 13.8589 14.3297 13.8589 15.8177C13.8589 17.3057 15.0691 18.5159 16.5571 18.5159C18.0451 18.5159 19.2553 17.3057 19.2553 15.8177C19.2553 14.3297 18.0451 13.1195 16.5571 13.1195ZM18.0543 17.0279C17.9551 17.1583 17.8065 17.2261 17.6552 17.2261C17.5496 17.2261 17.4426 17.1935 17.3526 17.1244L16.2128 16.2598C16.2037 16.2533 16.1972 16.2454 16.1894 16.2389C16.1763 16.2272 16.162 16.2154 16.1502 16.2024C16.1398 16.1907 16.1294 16.1776 16.1202 16.1659C16.1098 16.1528 16.1007 16.1398 16.0915 16.1268C16.0824 16.1124 16.0759 16.0981 16.0681 16.0837C16.0603 16.0694 16.0537 16.055 16.0485 16.0394C16.0433 16.0237 16.0381 16.0081 16.0342 15.9924C16.0303 15.9768 16.0263 15.9611 16.0237 15.9455C16.0211 15.9272 16.0198 15.9103 16.0185 15.892C16.0185 15.8816 16.0159 15.8712 16.0159 15.8607V14.4966C16.0159 14.2201 16.2402 13.9958 16.5167 13.9958C16.7932 13.9958 17.0175 14.2201 17.0175 14.4966V15.6129L17.9591 16.3276C18.1794 16.4945 18.2225 16.8088 18.0556 17.0305L18.0543 17.0279Z" fill="#0B1D26"/>
</svg>
