<svg width="25" height="25" viewBox="0 0 25 25" fill="none" xmlns="http://www.w3.org/2000/svg">
<path d="M12.5 0C5.59646 0 0 5.59646 0 12.5C0 19.4035 5.59646 25 12.5 25C19.4035 25 25 19.4035 25 12.5C25 5.59646 19.4035 0 12.5 0ZM6.0384 14.9026V10.0489C6.0384 9.65438 6.35911 9.33367 6.75366 9.33367H12.9519V10.5901H7.29589V14.3603H12.9519V15.6178H6.75476C6.36021 15.6178 6.0395 15.2971 6.0395 14.9026H6.0384ZM12.9519 11.7781V13.1734C12.5937 13.5007 12.0404 13.5007 11.6955 13.1734C11.2998 12.8218 11.2679 12.2245 11.6205 11.8476C11.9721 11.4574 12.5694 11.4266 12.953 11.7781H12.9519ZM10.1239 12.4758C10.1239 12.9959 9.70177 13.418 9.18158 13.418C8.62612 13.418 8.18198 12.9364 8.2448 12.3677C8.29219 11.9368 8.64266 11.5864 9.07468 11.5379C9.64336 11.475 10.125 11.9181 10.125 12.4747L10.1239 12.4758ZM18.6078 14.9026C18.6078 15.2971 18.2871 15.6178 17.8926 15.6178H15.4657V16.8742C15.4657 17.2214 15.7468 17.5024 16.0939 17.5024H16.937C17.1663 17.5024 17.3514 17.6876 17.3514 17.9168V18.3455C17.3514 18.5748 17.1663 18.7599 16.937 18.7599H15.7798C15.4338 18.7599 14.8376 18.4767 14.8376 18.1317C14.8376 18.4778 14.2402 18.7599 13.8953 18.7599H12.7381C12.5088 18.7599 12.3237 18.5748 12.3237 18.3455V17.9168C12.3237 17.6876 12.5088 17.5024 12.7381 17.5024H13.5812C13.9283 17.5024 14.2094 17.2214 14.2094 16.8742V8.07618C14.2094 7.72902 13.9283 7.44798 13.5812 7.44798H12.7381C12.5088 7.44798 12.3237 7.26283 12.3237 7.03359V6.60488C12.3237 6.37564 12.5088 6.19049 12.7381 6.19049H13.8953C14.2413 6.19049 14.8376 6.47373 14.8376 6.81869C14.8376 6.47263 15.4349 6.19049 15.7798 6.19049H16.937C17.1663 6.19049 17.3514 6.37564 17.3514 6.60488V7.03359C17.3514 7.26283 17.1663 7.44798 16.937 7.44798H16.0939C15.7468 7.44798 15.4657 7.72902 15.4657 8.07618V9.33367H17.8926C18.2871 9.33367 18.6078 9.65438 18.6078 10.0489V14.9026ZM15.4657 14.3614H17.3514V10.5912H15.4657V14.3614Z" fill="#0B1D26"/>
</svg>
