<svg width="48" height="48" viewBox="0 0 48 48" fill="none" xmlns="http://www.w3.org/2000/svg">
<rect x="0.5" y="0.5" width="47" height="47" rx="11.5" fill="white" stroke="#2F80ED"/>
<path d="M15.0501 19.0052H17.0759C17.3454 19.0052 17.5636 18.7921 17.5636 18.529V17.2298C17.5636 16.9666 17.3454 16.7535 17.0759 16.7535H15.0501C14.7806 16.7535 14.5624 16.9666 14.5624 17.2298V18.529C14.5624 18.7921 14.7806 19.0052 15.0501 19.0052ZM19.5371 31.1014H21.5629C21.8324 31.1014 22.0506 30.8883 22.0506 30.6252V29.326C22.0506 29.0628 21.8324 28.8498 21.5629 28.8498H19.5371C19.2676 28.8498 19.0494 29.0628 19.0494 29.326V30.6252C19.0494 30.8883 19.2676 31.1014 19.5371 31.1014ZM15.0501 22.4357H17.0759C17.3454 22.4357 17.5636 22.2226 17.5636 21.9595V20.6603C17.5636 20.3971 17.3454 20.184 17.0759 20.184H15.0501C14.7806 20.184 14.5624 20.3971 14.5624 20.6603V21.9595C14.5624 22.2226 14.7806 22.4357 15.0501 22.4357ZM15.0501 25.8667H17.0759C17.3454 25.8667 17.5636 25.6536 17.5636 25.3905V24.0913C17.5636 23.8281 17.3454 23.6151 17.0759 23.6151H15.0501C14.7806 23.6151 14.5624 23.8281 14.5624 24.0913V25.3905C14.5624 25.6536 14.7806 25.8667 15.0501 25.8667ZM19.5371 17.3997H21.5629C21.8324 17.3997 22.0506 17.1866 22.0506 16.9235V15.6242C22.0506 15.3611 21.8324 15.148 21.5629 15.148H19.5371C19.2676 15.148 19.0494 15.3611 19.0494 15.6242V16.9235C19.0494 17.1866 19.2676 17.3997 19.5371 17.3997ZM19.5371 20.8025H21.5629C21.8324 20.8025 22.0506 20.5894 22.0506 20.3263V19.027C22.0506 18.7639 21.8324 18.5508 21.5629 18.5508H19.5371C19.2676 18.5508 19.0494 18.7639 19.0494 19.027V20.3263C19.0494 20.5894 19.2676 20.8025 19.5371 20.8025ZM19.5371 24.2053H21.5629C21.8324 24.2053 22.0506 23.9922 22.0506 23.7291V22.4298C22.0506 22.1667 21.8324 21.9536 21.5629 21.9536H19.5371C19.2676 21.9536 19.0494 22.1667 19.0494 22.4298V23.7291C19.0494 23.9922 19.2676 24.2053 19.5371 24.2053ZM19.5371 27.6081H21.5629C21.8324 27.6081 22.0506 27.395 22.0506 27.1319V25.8326C22.0506 25.5695 21.8324 25.3564 21.5629 25.3564H19.5371C19.2676 25.3564 19.0494 25.5695 19.0494 25.8326V27.1319C19.0494 27.395 19.2676 27.6081 19.5371 27.6081ZM27.4196 28.984H29.4455C29.7149 28.984 29.9331 28.7709 29.9331 28.5078V27.2086C29.9331 26.9454 29.7149 26.7323 29.4455 26.7323H27.4196C27.1501 26.7323 26.932 26.9454 26.932 27.2086V28.5078C26.932 28.7709 27.1501 28.984 27.4196 28.984ZM27.4196 32.415H29.4455C29.7149 32.415 29.9331 32.202 29.9331 31.9388V30.6396C29.9331 30.3764 29.7149 30.1634 29.4455 30.1634H27.4196C27.1501 30.1634 26.932 30.3764 26.932 30.6396V31.9388C26.932 32.202 27.1501 32.415 27.4196 32.415ZM37.0203 19.768H25.4799V11.9567C25.4799 11.4283 25.0414 11 24.5003 11H11.9797C11.4386 11 11 11.4283 11 11.9567V35.0433C11 35.5717 11.4386 36 11.9797 36H37.0198C37.5609 36 37.9995 35.5717 37.9995 35.0433V20.7252C37.9995 20.1968 37.5609 19.7685 37.0198 19.7685L37.0203 19.768ZM23.5206 20.7242V34.0855H12.9593V12.9134H23.5201V20.7247L23.5206 20.7242ZM36.0407 34.0861H25.4799V21.6819H36.0407V34.0866V34.0861ZM27.4196 25.553H29.4455C29.7149 25.553 29.9331 25.3399 29.9331 25.0767V23.7775C29.9331 23.5144 29.7149 23.3013 29.4455 23.3013H27.4196C27.1501 23.3013 26.932 23.5144 26.932 23.7775V25.0767C26.932 25.3399 27.1501 25.553 27.4196 25.553ZM31.9066 27.3226H33.9325C34.2019 27.3226 34.4201 27.1095 34.4201 26.8463V25.5471C34.4201 25.284 34.2019 25.0709 33.9325 25.0709H31.9066C31.6371 25.0709 31.419 25.284 31.419 25.5471V26.8463C31.419 27.1095 31.6371 27.3226 31.9066 27.3226ZM31.9066 30.7253H33.9325C34.2019 30.7253 34.4201 30.5123 34.4201 30.2491V28.9499C34.4201 28.6868 34.2019 28.4737 33.9325 28.4737H31.9066C31.6371 28.4737 31.419 28.6868 31.419 28.9499V30.2491C31.419 30.5123 31.6371 30.7253 31.9066 30.7253ZM15.0506 29.2972H17.0765C17.3459 29.2972 17.5641 29.0841 17.5641 28.821V27.5218C17.5641 27.2586 17.3459 27.0456 17.0765 27.0456H15.0506C14.7812 27.0456 14.563 27.2586 14.563 27.5218V28.821C14.563 29.0841 14.7812 29.2972 15.0506 29.2972Z" fill="#2F80ED"/>
</svg>
