<svg width="31" height="31" viewBox="0 0 31 31" fill="none" xmlns="http://www.w3.org/2000/svg">
<path d="M30.696 16.4283L17.7824 1.86457L16.5256 0.409369C16.4154 0.281625 16.2801 0.179102 16.1285 0.108553C15.9769 0.0380033 15.8124 0.00102706 15.6458 2.82349e-06H15.6084C15.4438 -0.000359555 15.2811 0.0341636 15.1303 0.101422C14.9795 0.168681 14.844 0.2672 14.7324 0.390733L0.31275 16.4217C0.207391 16.5386 0.125645 16.6756 0.0721538 16.8248C0.0186625 16.974 -0.00549611 17.1326 0.00104771 17.2914C0.00759152 17.4502 0.0446769 17.6061 0.110257 17.7502C0.175836 17.8943 0.26858 18.0238 0.383183 18.1312C0.497512 18.2389 0.631549 18.3225 0.777538 18.3773C0.923526 18.432 1.0786 18.4567 1.23395 18.4501C1.38931 18.4434 1.54191 18.4055 1.68291 18.3385C1.82392 18.2715 1.95059 18.1768 2.05572 18.0597L3.92776 15.9761V29.7089C3.92776 30.0294 4.05232 30.3368 4.27405 30.5635C4.49578 30.7901 4.79653 30.9174 5.1101 30.9174H12.5604C12.7908 30.9725 13.0267 31.0002 13.2633 31H17.7326C17.9694 31.0002 18.2055 30.9725 18.4361 30.9174H25.8858C26.1994 30.9174 26.5001 30.7901 26.7219 30.5635C26.9436 30.3368 27.0682 30.0294 27.0682 29.7089V15.9439L28.9368 18.0511C29.0476 18.1765 29.183 18.2767 29.3341 18.3452C29.4853 18.4136 29.6488 18.4488 29.8142 18.4484C30.108 18.4489 30.3914 18.3372 30.6088 18.1352C30.7242 18.029 30.818 17.9006 30.8849 17.7573C30.9517 17.6141 30.9903 17.4587 30.9984 17.3002C31.0065 17.1417 30.9839 16.9831 30.932 16.8335C30.8802 16.6839 30.8 16.5462 30.696 16.4283ZM18.1898 28.3726C18.1898 28.3937 18.1479 28.4501 18.0646 28.499H12.9382C12.855 28.4486 12.8131 28.3937 12.8131 28.3726V22.4747C12.8131 22.4349 12.9643 22.2662 13.2668 22.2662H17.736C18.0385 22.2662 18.1898 22.4349 18.1898 22.4747V28.3726ZM24.7055 28.499H20.5545C20.5545 28.4572 20.5579 28.4149 20.5579 28.3726V22.4747C20.5579 21.025 19.2918 19.8457 17.736 19.8457H13.2668C11.711 19.8457 10.4454 21.025 10.4454 22.4747V28.3705C10.4454 28.4128 10.4454 28.4551 10.4489 28.4969H6.29788V13.5486L15.6212 3.02924L16.0153 3.47337L24.7055 13.5395V28.499Z" fill="#C3CAD2"/>
</svg>
