<svg width="25" height="25" viewBox="0 0 25 25" fill="none" xmlns="http://www.w3.org/2000/svg">
<path d="M12.4988 0C5.59586 0 0 5.59587 0 12.5C0 19.4041 5.59587 25 12.5 25C19.4041 25 25 19.4041 25 12.5C25 5.59587 19.4029 0 12.4988 0ZM12.4988 6.70535C14.4991 6.70535 16.1204 8.32795 16.1204 10.327C16.1204 12.3261 14.4991 13.9487 12.4988 13.9487C10.4985 13.9487 8.8771 12.3273 8.8771 10.327C8.8771 8.32671 10.4985 6.70535 12.4988 6.70535V6.70535ZM18.2934 17.2075C18.2934 17.8076 17.8076 18.2934 17.2075 18.2934H7.79122C7.19113 18.2934 6.70535 17.8076 6.70535 17.2075V16.3689C6.70535 15.3725 7.38371 14.5028 8.35156 14.2618L9.96546 13.858C11.2837 14.8047 13.3386 15.078 15.0345 13.858L16.6484 14.2618C17.6163 14.504 18.2947 15.3725 18.2947 16.3689V17.2075H18.2934Z" fill="#0B1D26"/>
</svg>
