<svg width="14" height="17" viewBox="0 0 14 17" fill="none" xmlns="http://www.w3.org/2000/svg">
<path d="M10.8281 0H3.16837C2.97237 0 1.94425 0.05525 0.978249 1.14835C0.027125 2.2236 0 3.2827 0 3.4V12.75C0 13.2009 0.184374 13.6333 0.512562 13.9521C0.840751 14.2709 1.28587 14.45 1.75 14.45C2.1208 14.45 2.3397 14.8657 2.12989 15.1714L1.75 15.725C1.37919 16.2653 1.76605 17 2.42137 17H2.48703C2.76673 17 3.02848 16.8622 3.1868 16.6316L3.22568 16.575C3.40834 16.309 3.71033 16.15 4.03303 16.15H9.99946C10.324 16.15 10.6281 16.3087 10.8137 16.575L10.8615 16.6436C11.0171 16.8669 11.2721 17 11.5443 17H11.5786C12.2339 17 12.6208 16.2653 12.25 15.725L11.8701 15.1714C11.6603 14.8657 11.8792 14.45 12.25 14.45C12.7141 14.45 13.1592 14.2709 13.4874 13.9521C13.8156 13.6333 14 13.2009 14 12.75V3.4C14.0009 3.2402 13.972 2.1811 13.0121 1.13475C12.0006 0.0314501 10.9454 0 10.8281 0ZM5.24999 2.55C5.24999 2.08056 5.63055 1.7 6.09999 1.7H7.89999C8.36943 1.7 8.74999 2.08056 8.74999 2.55C8.74999 3.01944 8.36943 3.4 7.89999 3.4H6.09999C5.63055 3.4 5.24999 3.01944 5.24999 2.55ZM3.0625 12.75C2.71428 12.7499 2.38038 12.6154 2.13424 12.3761C1.8881 12.1369 1.74988 11.8124 1.75 11.4741C1.75011 11.1359 1.88855 10.8115 2.13486 10.5724C2.38116 10.3333 2.71516 10.199 3.06337 10.1992C3.41158 10.1993 3.74549 10.3337 3.99163 10.573C4.23777 10.8123 4.37599 11.1367 4.37587 11.475C4.37575 11.8133 4.23732 12.1376 3.99101 12.3767C3.74471 12.6158 3.41071 12.7501 3.0625 12.75ZM10.9375 12.75C10.5893 12.7499 10.2554 12.6154 10.0092 12.3761C9.76309 12.1369 9.62487 11.8124 9.62499 11.4741C9.6251 11.1359 9.76354 10.8115 10.0098 10.5724C10.2562 10.3333 10.5901 10.199 10.9384 10.1992C11.2866 10.1993 11.6205 10.3337 11.8666 10.573C12.1128 10.8123 12.251 11.1367 12.2509 11.475C12.2507 11.8133 12.1123 12.1376 11.866 12.3767C11.6197 12.6158 11.2857 12.7501 10.9375 12.75ZM12.25 6.8C12.25 7.73888 11.4889 8.5 10.55 8.5H3.45C2.51111 8.5 1.75 7.73888 1.75 6.8C1.75 5.86112 2.51111 5.1 3.45 5.1H10.55C11.4889 5.1 12.25 5.86112 12.25 6.8Z" fill="#961619"/>
</svg>
