<svg width="14" height="14" viewBox="0 0 14 14" fill="none" xmlns="http://www.w3.org/2000/svg">
<path d="M13.2805 8.22745C13.3092 8.16584 13.3258 8.09905 13.3293 8.03089C13.3328 7.96273 13.3231 7.89453 13.3008 7.8302C13.2785 7.76587 13.244 7.70665 13.1993 7.65595L13.2805 8.22745ZM13.2805 8.22745C13.2517 8.28906 13.2114 8.34427 13.1618 8.38994L13.2805 8.22745ZM0.509524 8.02662L0.509526 8.02661M0.509524 8.02662L0.509306 8.0272L0.509306 8.02719L0.509526 8.02661M0.509524 8.02662L0.717002 8.46337L0.509526 8.02661M0.509524 8.02662L0.509526 8.02661M12.8242 7.98659C12.8243 7.98663 12.8243 7.98668 12.8243 7.98673C12.8257 7.9883 12.8272 7.99069 12.8284 7.994L12.8284 7.99401C12.8296 7.99746 12.8302 8.00138 12.83 8.00538C12.8298 8.00937 12.8288 8.01303 12.8274 8.01606C12.8269 8.01696 12.8265 8.01777 12.8261 8.01849C12.8251 8.0201 12.824 8.02127 12.8232 8.02205L12.8215 8.02365C12.8209 8.02418 12.8205 8.02447 12.8202 8.02462L12.8197 8.02462C12.8193 8.02441 12.8185 8.02386 12.8175 8.02269L12.8169 8.02205L12.0134 7.11592L11.1393 6.13018V7.44765V13.3666C11.1393 13.3753 11.1358 13.3815 11.133 13.3844L11.4904 13.7341L11.133 13.3844C11.1318 13.3857 11.131 13.3861 11.1306 13.3863H7.92752H7.86866L7.81141 13.4C7.75036 13.4145 7.68795 13.4218 7.62541 13.4218H7.62501H5.70324H5.70278C5.64038 13.4219 5.57812 13.4145 5.5172 13.4L5.45989 13.3863H5.40096H2.19769C2.1973 13.3861 2.19645 13.3857 2.19524 13.3844L1.84363 13.7284L2.19524 13.3844C2.19242 13.3815 2.18894 13.3753 2.18894 13.3666V7.46151V6.15687L1.317 7.12735L0.512026 8.0233L0.511898 8.02344C0.510763 8.02471 0.509847 8.02533 0.509364 8.0256C0.508979 8.02538 0.508381 8.02499 0.507645 8.02429L0.506703 8.02341C0.505472 8.02225 0.503869 8.02028 0.502503 8.01728L0.0474104 8.22438L0.502502 8.01728C0.501162 8.01434 0.500198 8.01066 0.500027 8.00651C0.499858 8.00242 0.500502 7.99853 0.501703 7.99518C0.502914 7.9918 0.504512 7.98941 0.505879 7.9879L0.506224 7.98751L6.70596 1.09499C6.706 1.09495 6.70604 1.0949 6.70608 1.09486C6.70771 1.09309 6.70907 1.09233 6.70972 1.09203L6.71049 1.0918H6.71159H6.72434H6.72448L6.72434 1.09181C6.72465 1.09195 6.72583 1.09258 6.72736 1.09436L6.7276 1.09464L7.26801 1.72037L7.26798 1.7204L7.27231 1.72529L12.8242 7.98659ZM7.76779 13.3463H7.90363L8.02079 13.2776C8.07799 13.2441 8.13158 13.202 8.17727 13.1519C8.19958 13.1275 8.22645 13.0942 8.25091 13.0519C8.26525 13.0272 8.3216 12.9295 8.3216 12.792V10.2559C8.3216 10.1229 8.26885 10.0279 8.25456 10.0024C8.23112 9.96065 8.20536 9.9277 8.1842 9.90373C8.14087 9.85466 8.09044 9.81347 8.03735 9.78038C7.92745 9.71186 7.78735 9.66627 7.6265 9.66627H5.70473C5.54387 9.66627 5.40378 9.71186 5.29388 9.78038C5.24079 9.81347 5.19036 9.85466 5.14703 9.90373C5.12586 9.9277 5.10011 9.96065 5.07667 10.0024C5.06238 10.0279 5.00963 10.1229 5.00963 10.2559V12.792C5.00963 12.9308 5.067 13.0292 5.08176 13.0543C5.10655 13.0966 5.13358 13.1296 5.15536 13.1532C5.20002 13.2017 5.25144 13.242 5.30468 13.2742L5.424 13.3463H5.56343H7.76779ZM10.6233 13.3463H11.1233V12.8463V6.41377V6.2278L11.0018 6.08703L7.26504 1.75861L7.26507 1.75858L7.26055 1.75348L7.09108 1.5625L6.71687 1.1408L6.34291 1.56273L2.3339 6.08603L2.20809 6.22799V6.41768V12.8455V13.3455H2.70809H4.49302H5.03598L4.99161 12.8078L4.99155 12.8021L4.99153 12.7911V10.2559C4.99153 9.94138 5.27803 9.62546 5.70473 9.62546H7.6265C8.05331 9.62546 8.33991 9.94149 8.33991 10.2559V12.7904C8.33988 12.7912 8.33979 12.7936 8.33958 12.7987L8.33952 12.8003C8.33918 12.8085 8.33842 12.8267 8.33842 12.8463V13.3463H8.83842H10.6233Z" fill="#961619" stroke="#2F80ED"/>
</svg>
