<svg width="31" height="30" viewBox="0 0 31 30" fill="none" xmlns="http://www.w3.org/2000/svg">
<path d="M4.64767 9.60549H6.97432C7.12331 9.60549 7.2662 9.54509 7.37155 9.43756C7.4769 9.33003 7.53608 9.18419 7.53608 9.03212V7.47253C7.53608 7.32046 7.4769 7.17462 7.37155 7.06709C7.2662 6.95956 7.12331 6.89915 6.97432 6.89915H4.64767C4.49868 6.89915 4.35579 6.95956 4.25044 7.06709C4.14509 7.17462 4.08591 7.32046 4.08591 7.47253V9.03212C4.08591 9.18419 4.14509 9.33003 4.25044 9.43756C4.35579 9.54509 4.49868 9.60549 4.64767 9.60549ZM9.79996 24.1224H12.1261C12.2747 24.1224 12.4173 24.0623 12.5226 23.9553C12.6278 23.8483 12.6873 23.7031 12.6879 23.5514V21.9918C12.6879 21.8398 12.6287 21.6939 12.5234 21.5864C12.418 21.4789 12.2751 21.4185 12.1261 21.4185H9.79996C9.65097 21.4185 9.50808 21.4789 9.40273 21.5864C9.29738 21.6939 9.2382 21.8398 9.2382 21.9918V23.5514C9.23882 23.7031 9.29827 23.8483 9.40355 23.9553C9.50884 24.0623 9.65137 24.1224 9.79996 24.1224ZM4.64767 13.7228H6.97432C7.12331 13.7228 7.2662 13.6624 7.37155 13.5549C7.4769 13.4473 7.53608 13.3015 7.53608 13.1494V11.5898C7.53608 11.4378 7.4769 11.2919 7.37155 11.1844C7.2662 11.0769 7.12331 11.0165 6.97432 11.0165H4.64767C4.49868 11.0165 4.35579 11.0769 4.25044 11.1844C4.14509 11.2919 4.08591 11.4378 4.08591 11.5898V13.1494C4.08591 13.3015 4.14509 13.4473 4.25044 13.5549C4.35579 13.6624 4.49868 13.7228 4.64767 13.7228ZM4.64767 17.8406H6.97432C7.12331 17.8406 7.2662 17.7802 7.37155 17.6727C7.4769 17.5651 7.53608 17.4193 7.53608 17.2672V15.7076C7.53608 15.5556 7.4769 15.4097 7.37155 15.3022C7.2662 15.1947 7.12331 15.1343 6.97432 15.1343H4.64767C4.49868 15.1343 4.35579 15.1947 4.25044 15.3022C4.14509 15.4097 4.08591 15.5556 4.08591 15.7076V17.2677C4.08591 17.4198 4.14509 17.5656 4.25044 17.6731C4.35579 17.7807 4.49868 17.8411 4.64767 17.8411V17.8406ZM9.79996 7.67894H12.1261C12.2751 7.67894 12.418 7.61853 12.5234 7.511C12.6287 7.40347 12.6879 7.25763 12.6879 7.10556V5.54646C12.6879 5.39439 12.6287 5.24855 12.5234 5.14102C12.418 5.03349 12.2751 4.97308 12.1261 4.97308H9.79996C9.65097 4.97308 9.50808 5.03349 9.40273 5.14102C9.29738 5.24855 9.2382 5.39439 9.2382 5.54646V7.10556C9.2382 7.25763 9.29738 7.40347 9.40273 7.511C9.50808 7.61853 9.65097 7.67894 9.79996 7.67894ZM9.79996 11.7628H12.1261C12.2751 11.7628 12.418 11.7024 12.5234 11.5949C12.6287 11.4874 12.6879 11.3415 12.6879 11.1894V9.62985C12.6879 9.47778 12.6287 9.33194 12.5234 9.22441C12.418 9.11688 12.2751 9.05647 12.1261 9.05647H9.79996C9.65097 9.05647 9.50808 9.11688 9.40273 9.22441C9.29738 9.33194 9.2382 9.47778 9.2382 9.62985V11.1894C9.2382 11.3415 9.29738 11.4874 9.40273 11.5949C9.50808 11.7024 9.65097 11.7628 9.79996 11.7628ZM9.79996 15.8467H12.1261C12.2751 15.8467 12.418 15.7863 12.5234 15.6787C12.6287 15.5712 12.6879 15.4254 12.6879 15.2733V13.7137C12.6879 13.5617 12.6287 13.4158 12.5234 13.3083C12.418 13.2008 12.2751 13.1404 12.1261 13.1404H9.79996C9.65097 13.1404 9.50808 13.2008 9.40273 13.3083C9.29738 13.4158 9.2382 13.5617 9.2382 13.7137V15.2733C9.2382 15.4254 9.29738 15.5712 9.40273 15.6787C9.50808 15.7863 9.65097 15.8467 9.79996 15.8467ZM9.79996 19.9306H12.1261C12.2751 19.9306 12.418 19.8701 12.5234 19.7626C12.6287 19.6551 12.6879 19.5092 12.6879 19.3572V17.7976C12.6879 17.6455 12.6287 17.4997 12.5234 17.3921C12.418 17.2846 12.2751 17.2242 12.1261 17.2242H9.79996C9.65097 17.2242 9.50808 17.2846 9.40273 17.3921C9.29738 17.4997 9.2382 17.6455 9.2382 17.7976V19.3572C9.2382 19.5092 9.29738 19.6551 9.40273 19.7626C9.50808 19.8701 9.65097 19.9306 9.79996 19.9306ZM18.8509 21.5819H21.1775C21.3265 21.5819 21.4694 21.5215 21.5748 21.4139C21.6801 21.3064 21.7393 21.1606 21.7393 21.0085V19.4489C21.7393 19.2968 21.6801 19.151 21.5748 19.0435C21.4694 18.9359 21.3265 18.8755 21.1775 18.8755H18.8519C18.7029 18.8755 18.56 18.9359 18.4546 19.0435C18.3493 19.151 18.2901 19.2968 18.2901 19.4489V21.0085C18.2901 21.1606 18.3493 21.3064 18.4546 21.4139C18.56 21.5215 18.7029 21.5819 18.8519 21.5819H18.8509ZM18.8509 25.6992H21.1775C21.3265 25.6992 21.4694 25.6388 21.5748 25.5313C21.6801 25.4237 21.7393 25.2779 21.7393 25.1258V23.5667C21.7393 23.4146 21.6801 23.2688 21.5748 23.1613C21.4694 23.0537 21.3265 22.9933 21.1775 22.9933H18.8519C18.7029 22.9933 18.56 23.0537 18.4546 23.1613C18.3493 23.2688 18.2901 23.4146 18.2901 23.5667V25.1258C18.2901 25.2779 18.3493 25.4237 18.4546 25.5313C18.56 25.6388 18.7029 25.6992 18.8519 25.6992H18.8509ZM29.8751 10.5215H16.6236V1.14675C16.6236 0.842614 16.5051 0.55095 16.2944 0.335892C16.0837 0.120835 15.798 0 15.5 0H1.12353C0.825549 0 0.539769 0.120835 0.329067 0.335892C0.118365 0.55095 0 0.842614 0 1.14675V28.8532C0 29.1574 0.118365 29.449 0.329067 29.6641C0.539769 29.8792 0.825549 30 1.12353 30H29.8765C30.1744 30 30.4602 29.8792 30.6709 29.6641C30.8816 29.449 31 29.1574 31 28.8532V11.6696C31.0002 11.5188 30.9712 11.3694 30.9147 11.23C30.8583 11.0906 30.7754 10.964 30.6709 10.8573C30.5664 10.7507 30.4424 10.6661 30.3058 10.6085C30.1692 10.5508 30.0228 10.5213 29.8751 10.5215ZM14.3737 11.6682V27.7036H2.24893V2.2935H14.3737V11.6682ZM28.7502 27.7041H16.6254V12.8178H28.7502V27.7041ZM18.8519 17.4646H21.1785C21.3275 17.4646 21.4704 17.4042 21.5757 17.2966C21.6811 17.1891 21.7403 17.0433 21.7403 16.8912V15.3316C21.7403 15.1795 21.6811 15.0337 21.5757 14.9262C21.4704 14.8186 21.3275 14.7582 21.1785 14.7582H18.8519C18.7029 14.7582 18.56 14.8186 18.4546 14.9262C18.3493 15.0337 18.2901 15.1795 18.2901 15.3316V16.8912C18.2901 17.0433 18.3493 17.1891 18.4546 17.2966C18.56 17.4042 18.7029 17.4646 18.8519 17.4646ZM24.0037 19.5884H26.3303C26.4793 19.5884 26.6222 19.528 26.7276 19.4205C26.8329 19.313 26.8921 19.1671 26.8921 19.0151V17.4588C26.8921 17.3068 26.8329 17.1609 26.7276 17.0534C26.6222 16.9459 26.4793 16.8854 26.3303 16.8854H24.0014C23.8524 16.8854 23.7095 16.9459 23.6041 17.0534C23.4988 17.1609 23.4396 17.3068 23.4396 17.4588V19.0184C23.4405 19.1699 23.5 19.3149 23.6053 19.4217C23.7105 19.5285 23.8529 19.5884 24.0014 19.5884H24.0037ZM24.0037 23.6718H26.3303C26.4793 23.6718 26.6222 23.6114 26.7276 23.5039C26.8329 23.3964 26.8921 23.2505 26.8921 23.0984V21.5393C26.8921 21.3873 26.8329 21.2414 26.7276 21.1339C26.6222 21.0264 26.4793 20.966 26.3303 20.966H24.0014C23.8524 20.966 23.7095 21.0264 23.6041 21.1339C23.4988 21.2414 23.4396 21.3873 23.4396 21.5393V23.0984C23.44 23.2503 23.4993 23.3958 23.6046 23.503C23.7099 23.6102 23.8526 23.6704 24.0014 23.6704L24.0037 23.6718ZM4.64858 21.9579H6.97523C7.12422 21.9579 7.26711 21.8975 7.37246 21.79C7.47781 21.6825 7.537 21.5366 7.537 21.3845V19.825C7.537 19.6729 7.47781 19.527 7.37246 19.4195C7.26711 19.312 7.12422 19.2516 6.97523 19.2516H4.64858C4.4996 19.2516 4.35671 19.312 4.25135 19.4195C4.146 19.527 4.08682 19.6729 4.08682 19.825V21.3845C4.08682 21.5364 4.14589 21.6821 4.25103 21.7896C4.35618 21.8971 4.49884 21.9577 4.64767 21.9579H4.64858Z" fill="#C3CAD2"/>
</svg>
