<svg width="43" height="43" viewBox="0 0 43 43" fill="none" xmlns="http://www.w3.org/2000/svg">
<path d="M32.9868 18.8374C32.9818 15.3156 30.1258 12.4629 26.6031 12.4629C24.6422 12.4629 22.7542 13.6371 21.4657 15.285C21.3034 15.0813 21.132 14.885 20.9532 14.6979C20.27 13.9452 19.4825 13.3605 18.5575 12.9987C17.8636 12.6989 17.1307 12.5291 16.3863 12.5291C12.8678 12.5291 10.0159 15.381 10.0159 18.8996C10.0159 18.9161 9.96371 21.648 11.3665 23.8506C12.332 25.3478 13.5808 26.5949 14.9049 27.765C16.7589 29.4037 18.642 31.0094 20.5134 32.6275C21.1602 33.1864 21.8417 33.1831 22.4884 32.6233C24.3483 31.0135 26.2189 29.417 28.0622 27.789C29.4037 26.604 30.6947 25.3586 31.6445 23.8241C33.0887 21.4914 32.986 18.8374 32.986 18.8374H32.9868Z" fill="white"/>
<path fill-rule="evenodd" clip-rule="evenodd" d="M21.4998 2.0594C10.7632 2.0594 2.0594 10.7632 2.0594 21.4998C2.0594 32.2365 10.7632 40.9402 21.4998 40.9402C32.2365 40.9402 40.9402 32.2365 40.9402 21.4998C40.9402 10.7632 32.2365 2.0594 21.4998 2.0594ZM0.511719 21.4998C0.511719 9.90841 9.90841 0.511719 21.4998 0.511719C33.0912 0.511719 42.4879 9.90841 42.4879 21.4998C42.4879 33.0912 33.0912 42.4879 21.4998 42.4879C9.90841 42.4879 0.511719 33.0912 0.511719 21.4998Z" fill="white"/>
<path fill-rule="evenodd" clip-rule="evenodd" d="M0 21.5C0 9.62588 9.62588 0 21.5 0C33.3741 0 43 9.62588 43 21.5C43 33.3741 33.3741 43 21.5 43C9.62588 43 0 33.3741 0 21.5ZM21.5 1.02381C10.1913 1.02381 1.02381 10.1913 1.02381 21.5C1.02381 32.8087 10.1913 41.9762 21.5 41.9762C32.8087 41.9762 41.9762 32.8087 41.9762 21.5C41.9762 10.1913 32.8087 1.02381 21.5 1.02381ZM21.5 2.57149C11.0461 2.57149 2.57149 11.0461 2.57149 21.5C2.57149 31.9539 11.0461 40.4285 21.5 40.4285C31.9539 40.4285 40.4285 31.9539 40.4285 21.5C40.4285 11.0461 31.9539 2.57149 21.5 2.57149ZM1.54768 21.5C1.54768 10.4806 10.4806 1.54768 21.5 1.54768C32.5194 1.54768 41.4523 10.4806 41.4523 21.5C41.4523 32.5194 32.5194 41.4523 21.5 41.4523C10.4806 41.4523 1.54768 32.5194 1.54768 21.5Z" fill="white"/>
</svg>
