<svg width="32" height="32" viewBox="0 0 32 32" fill="none" xmlns="http://www.w3.org/2000/svg">
<path d="M2.4 0C1.76348 0 1.15303 0.252856 0.702944 0.702944C0.252856 1.15303 0 1.76348 0 2.4V23.2C0 23.8365 0.252856 24.447 0.702944 24.8971C1.15303 25.3471 1.76348 25.6 2.4 25.6H11.2V20.2944C11.2 19.0736 11.7056 17.9104 12.5984 17.0784L19.2 10.9136V10.4C19.2 9.76348 18.9471 9.15303 18.4971 8.70294C18.047 8.25286 17.4365 8 16.8 8H14.4V2.4C14.4 1.76348 14.1471 1.15303 13.6971 0.702944C13.247 0.252856 12.6365 0 12 0H2.4ZM6.4 6C6.4 6.31826 6.27357 6.62348 6.04853 6.84853C5.82348 7.07357 5.51826 7.2 5.2 7.2C4.88174 7.2 4.57652 7.07357 4.35147 6.84853C4.12643 6.62348 4 6.31826 4 6C4 5.68174 4.12643 5.37652 4.35147 5.15147C4.57652 4.92643 4.88174 4.8 5.2 4.8C5.51826 4.8 5.82348 4.92643 6.04853 5.15147C6.27357 5.37652 6.4 5.68174 6.4 6ZM5.2 12C4.88174 12 4.57652 11.8736 4.35147 11.6485C4.12643 11.4235 4 11.1183 4 10.8C4 10.4817 4.12643 10.1765 4.35147 9.95147C4.57652 9.72643 4.88174 9.6 5.2 9.6C5.51826 9.6 5.82348 9.72643 6.04853 9.95147C6.27357 10.1765 6.4 10.4817 6.4 10.8C6.4 11.1183 6.27357 11.4235 6.04853 11.6485C5.82348 11.8736 5.51826 12 5.2 12ZM6.4 15.6C6.4 15.9183 6.27357 16.2235 6.04853 16.4485C5.82348 16.6736 5.51826 16.8 5.2 16.8C4.88174 16.8 4.57652 16.6736 4.35147 16.4485C4.12643 16.2235 4 15.9183 4 15.6C4 15.2817 4.12643 14.9765 4.35147 14.7515C4.57652 14.5264 4.88174 14.4 5.2 14.4C5.51826 14.4 5.82348 14.5264 6.04853 14.7515C6.27357 14.9765 6.4 15.2817 6.4 15.6ZM9.2 7.2C8.88174 7.2 8.57652 7.07357 8.35147 6.84853C8.12643 6.62348 8 6.31826 8 6C8 5.68174 8.12643 5.37652 8.35147 5.15147C8.57652 4.92643 8.88174 4.8 9.2 4.8C9.51826 4.8 9.82348 4.92643 10.0485 5.15147C10.2736 5.37652 10.4 5.68174 10.4 6C10.4 6.31826 10.2736 6.62348 10.0485 6.84853C9.82348 7.07357 9.51826 7.2 9.2 7.2ZM10.4 10.8C10.4 11.1183 10.2736 11.4235 10.0485 11.6485C9.82348 11.8736 9.51826 12 9.2 12C8.88174 12 8.57652 11.8736 8.35147 11.6485C8.12643 11.4235 8 11.1183 8 10.8C8 10.4817 8.12643 10.1765 8.35147 9.95147C8.57652 9.72643 8.88174 9.6 9.2 9.6C9.51826 9.6 9.82348 9.72643 10.0485 9.95147C10.2736 10.1765 10.4 10.4817 10.4 10.8ZM9.2 16.8C9.04241 16.8 8.88637 16.769 8.74078 16.7087C8.59519 16.6483 8.4629 16.56 8.35147 16.4485C8.24004 16.3371 8.15165 16.2048 8.09134 16.0592C8.03104 15.9136 8 15.7576 8 15.6C8 15.4424 8.03104 15.2864 8.09134 15.1408C8.15165 14.9952 8.24004 14.8629 8.35147 14.7515C8.4629 14.64 8.59519 14.5517 8.74078 14.4913C8.88637 14.431 9.04241 14.4 9.2 14.4C9.51826 14.4 9.82348 14.5264 10.0485 14.7515C10.2736 14.9765 10.4 15.2817 10.4 15.6C10.4 15.9183 10.2736 16.2235 10.0485 16.4485C9.82348 16.6736 9.51826 16.8 9.2 16.8ZM24.3104 11.9024C23.7919 11.4185 23.1092 11.1494 22.4 11.1494C21.6908 11.1494 21.0081 11.4185 20.4896 11.9024L13.6896 18.248C13.4088 18.5101 13.1849 18.8272 13.0318 19.1795C12.8788 19.5318 12.7999 19.9119 12.8 20.296V29.6C12.8 30.2365 13.0529 30.847 13.5029 31.2971C13.953 31.7471 14.5635 32 15.2 32H18.4C19.0365 32 19.647 31.7471 20.0971 31.2971C20.5471 30.847 20.8 30.2365 20.8 29.6V25.6H24V29.6C24 30.2365 24.2529 30.847 24.7029 31.2971C25.153 31.7471 25.7635 32 26.4 32H29.6C30.2365 32 30.847 31.7471 31.2971 31.2971C31.7471 30.847 32 30.2365 32 29.6V20.296C32.0001 19.9119 31.9212 19.5318 31.7682 19.1795C31.6151 18.8272 31.3912 18.5101 31.1104 18.248L24.3104 11.9024ZM22.1264 13.656C22.2005 13.5865 22.2984 13.5478 22.4 13.5478C22.5016 13.5478 22.5995 13.5865 22.6736 13.656L29.4736 20.0032C29.5136 20.0407 29.5455 20.0861 29.5672 20.1365C29.589 20.1868 29.6001 20.2411 29.6 20.296V29.6H26.4V25.6C26.4 24.9635 26.1471 24.353 25.6971 23.9029C25.247 23.4529 24.6365 23.2 24 23.2H20.8C20.1635 23.2 19.553 23.4529 19.1029 23.9029C18.6529 24.353 18.4 24.9635 18.4 25.6V29.6H15.2V20.296C15.2001 20.241 15.2115 20.1866 15.2335 20.1363C15.2555 20.0859 15.2877 20.0406 15.328 20.0032L22.128 13.656H22.1264ZM11.6 0H2.8H11.6Z" fill="#0B1D26"/>
</svg>
