<svg width="15" height="19" viewBox="0 0 15 19" fill="none" xmlns="http://www.w3.org/2000/svg">
<path d="M7.151 18.5921C7.16162 18.5921 7.16862 18.581 7.16149 18.5732C5.73391 16.9989 0.0278215 10.5755 0.0278215 7.29076C-0.0595943 6.3647 0.0595084 5.43173 0.377758 4.55118C0.696007 3.67063 1.20648 2.86176 1.87643 2.17603C2.54638 1.4903 3.3613 0.942718 4.26935 0.568091C5.17739 0.193465 6.15853 0 7.1507 0C8.14286 0 9.12419 0.193465 10.0322 0.568091C10.9403 0.942718 11.7552 1.4903 12.4252 2.17603C13.0951 2.86176 13.6056 3.67063 13.9238 4.55118C14.2421 5.43173 14.3612 6.3647 14.2738 7.29076C14.2738 10.5754 8.5918 17.0057 7.14057 18.5731C7.13331 18.5809 7.14032 18.5921 7.151 18.5921Z" fill="#961619"/>
<path d="M7.17785 11.4422C6.3281 11.4477 5.49576 11.2008 4.78652 10.7328C4.07728 10.2647 3.52301 9.59658 3.19398 8.8131C2.86495 8.02962 2.77608 7.1661 2.93846 6.33199C3.10084 5.49788 3.50722 4.73074 4.10613 4.12791C4.70504 3.52507 5.46941 3.11366 6.30244 2.94584C7.13547 2.77801 7.99965 2.86134 8.78527 3.18524C9.57089 3.50914 10.2426 4.05904 10.7153 4.76521C11.188 5.47137 11.4403 6.30198 11.4403 7.15174C11.4433 8.28572 10.9961 9.37453 10.1968 10.179C9.39763 10.9835 8.31182 11.4377 7.17785 11.4422Z" fill="white"/>
</svg>
