<svg width="31" height="30" viewBox="0 0 31 30" fill="none" xmlns="http://www.w3.org/2000/svg">
<path d="M26.3523 9.60549H24.0257C23.8767 9.60549 23.7338 9.54509 23.6285 9.43756C23.5231 9.33003 23.4639 9.18419 23.4639 9.03212V7.47253C23.4639 7.32046 23.5231 7.17462 23.6285 7.06709C23.7338 6.95956 23.8767 6.89915 24.0257 6.89915H26.3523C26.5013 6.89915 26.6442 6.95956 26.7496 7.06709C26.8549 7.17462 26.9141 7.32046 26.9141 7.47253V9.03212C26.9141 9.18419 26.8549 9.33003 26.7496 9.43756C26.6442 9.54509 26.5013 9.60549 26.3523 9.60549ZM21.2 24.1224H18.8739C18.7253 24.1224 18.5827 24.0623 18.4774 23.9553C18.3722 23.8483 18.3127 23.7031 18.3121 23.5514V21.9918C18.3121 21.8398 18.3713 21.6939 18.4766 21.5864C18.582 21.4789 18.7249 21.4185 18.8739 21.4185H21.2C21.349 21.4185 21.4919 21.4789 21.5973 21.5864C21.7026 21.6939 21.7618 21.8398 21.7618 21.9918V23.5514C21.7612 23.7031 21.7017 23.8483 21.5964 23.9553C21.4912 24.0623 21.3486 24.1224 21.2 24.1224ZM26.3523 13.7228H24.0257C23.8767 13.7228 23.7338 13.6624 23.6285 13.5549C23.5231 13.4473 23.4639 13.3015 23.4639 13.1494V11.5898C23.4639 11.4378 23.5231 11.2919 23.6285 11.1844C23.7338 11.0769 23.8767 11.0165 24.0257 11.0165H26.3523C26.5013 11.0165 26.6442 11.0769 26.7496 11.1844C26.8549 11.2919 26.9141 11.4378 26.9141 11.5898V13.1494C26.9141 13.3015 26.8549 13.4473 26.7496 13.5549C26.6442 13.6624 26.5013 13.7228 26.3523 13.7228ZM26.3523 17.8406H24.0257C23.8767 17.8406 23.7338 17.7802 23.6285 17.6727C23.5231 17.5651 23.4639 17.4193 23.4639 17.2672V15.7076C23.4639 15.5556 23.5231 15.4097 23.6285 15.3022C23.7338 15.1947 23.8767 15.1343 24.0257 15.1343H26.3523C26.5013 15.1343 26.6442 15.1947 26.7496 15.3022C26.8549 15.4097 26.9141 15.5556 26.9141 15.7076V17.2677C26.9141 17.4198 26.8549 17.5656 26.7496 17.6731C26.6442 17.7807 26.5013 17.8411 26.3523 17.8411V17.8406ZM21.2 7.67894H18.8739C18.7249 7.67894 18.582 7.61853 18.4766 7.511C18.3713 7.40347 18.3121 7.25763 18.3121 7.10556V5.54646C18.3121 5.39439 18.3713 5.24855 18.4766 5.14102C18.582 5.03349 18.7249 4.97308 18.8739 4.97308H21.2C21.349 4.97308 21.4919 5.03349 21.5973 5.14102C21.7026 5.24855 21.7618 5.39439 21.7618 5.54646V7.10556C21.7618 7.25763 21.7026 7.40347 21.5973 7.511C21.4919 7.61853 21.349 7.67894 21.2 7.67894ZM21.2 11.7628H18.8739C18.7249 11.7628 18.582 11.7024 18.4766 11.5949C18.3713 11.4874 18.3121 11.3415 18.3121 11.1894V9.62985C18.3121 9.47778 18.3713 9.33194 18.4766 9.22441C18.582 9.11688 18.7249 9.05647 18.8739 9.05647H21.2C21.349 9.05647 21.4919 9.11688 21.5973 9.22441C21.7026 9.33194 21.7618 9.47778 21.7618 9.62985V11.1894C21.7618 11.3415 21.7026 11.4874 21.5973 11.5949C21.4919 11.7024 21.349 11.7628 21.2 11.7628ZM21.2 15.8467H18.8739C18.7249 15.8467 18.582 15.7863 18.4766 15.6787C18.3713 15.5712 18.3121 15.4254 18.3121 15.2733V13.7137C18.3121 13.5617 18.3713 13.4158 18.4766 13.3083C18.582 13.2008 18.7249 13.1404 18.8739 13.1404H21.2C21.349 13.1404 21.4919 13.2008 21.5973 13.3083C21.7026 13.4158 21.7618 13.5617 21.7618 13.7137V15.2733C21.7618 15.4254 21.7026 15.5712 21.5973 15.6787C21.4919 15.7863 21.349 15.8467 21.2 15.8467ZM21.2 19.9306H18.8739C18.7249 19.9306 18.582 19.8701 18.4766 19.7626C18.3713 19.6551 18.3121 19.5092 18.3121 19.3572V17.7976C18.3121 17.6455 18.3713 17.4997 18.4766 17.3921C18.582 17.2846 18.7249 17.2242 18.8739 17.2242H21.2C21.349 17.2242 21.4919 17.2846 21.5973 17.3921C21.7026 17.4997 21.7618 17.6455 21.7618 17.7976V19.3572C21.7618 19.5092 21.7026 19.6551 21.5973 19.7626C21.4919 19.8701 21.349 19.9306 21.2 19.9306ZM12.1491 21.5819H9.82245C9.67346 21.5819 9.53057 21.5215 9.42522 21.4139C9.31987 21.3064 9.26069 21.1606 9.26069 21.0085V19.4489C9.26069 19.2968 9.31987 19.151 9.42522 19.0435C9.53057 18.9359 9.67346 18.8755 9.82245 18.8755H12.1481C12.2971 18.8755 12.44 18.9359 12.5454 19.0435C12.6507 19.151 12.7099 19.2968 12.7099 19.4489V21.0085C12.7099 21.1606 12.6507 21.3064 12.5454 21.4139C12.44 21.5215 12.2971 21.5819 12.1481 21.5819H12.1491ZM12.1491 25.6992H9.82245C9.67346 25.6992 9.53057 25.6388 9.42522 25.5313C9.31987 25.4237 9.26069 25.2779 9.26069 25.1258V23.5667C9.26069 23.4146 9.31987 23.2688 9.42522 23.1613C9.53057 23.0537 9.67346 22.9933 9.82245 22.9933H12.1481C12.2971 22.9933 12.44 23.0537 12.5454 23.1613C12.6507 23.2688 12.7099 23.4146 12.7099 23.5667V25.1258C12.7099 25.2779 12.6507 25.4237 12.5454 25.5313C12.44 25.6388 12.2971 25.6992 12.1481 25.6992H12.1491ZM1.12494 10.5215H14.3764V1.14675C14.3764 0.842614 14.4949 0.55095 14.7056 0.335892C14.9163 0.120835 15.202 0 15.5 0H29.8765C30.1745 0 30.4602 0.120835 30.6709 0.335892C30.8816 0.55095 31 0.842614 31 1.14675V28.8532C31 29.1574 30.8816 29.449 30.6709 29.6641C30.4602 29.8792 30.1745 30 29.8765 30H1.12353C0.82555 30 0.53977 29.8792 0.329067 29.6641C0.118364 29.449 0 29.1574 0 28.8532V11.6696C-0.000185013 11.5188 0.0287933 11.3694 0.0852623 11.23C0.141729 11.0906 0.224571 10.964 0.329067 10.8573C0.433563 10.7507 0.557638 10.6661 0.694204 10.6085C0.83077 10.5508 0.977165 10.5213 1.12494 10.5215ZM16.6263 11.6682V27.7036H28.7511V2.2935H16.6263V11.6682ZM2.24984 27.7041H14.3746V12.8178H2.24984V27.7041ZM12.1481 17.4646H9.82149C9.6725 17.4646 9.52961 17.4042 9.42426 17.2966C9.31891 17.1891 9.25973 17.0433 9.25973 16.8912V15.3316C9.25973 15.1795 9.31891 15.0337 9.42426 14.9262C9.52961 14.8186 9.6725 14.7582 9.82149 14.7582H12.1481C12.2971 14.7582 12.44 14.8186 12.5454 14.9262C12.6507 15.0337 12.7099 15.1795 12.7099 15.3316V16.8912C12.7099 17.0433 12.6507 17.1891 12.5454 17.2966C12.44 17.4042 12.2971 17.4646 12.1481 17.4646ZM6.99631 19.5884H4.66966C4.52067 19.5884 4.37778 19.528 4.27243 19.4205C4.16708 19.313 4.1079 19.1671 4.1079 19.0151V17.4588C4.1079 17.3068 4.16708 17.1609 4.27243 17.0534C4.37778 16.9459 4.52067 16.8854 4.66966 16.8854H6.99864C7.14763 16.8854 7.29052 16.9459 7.39587 17.0534C7.50122 17.1609 7.5604 17.3068 7.5604 17.4588V19.0184C7.55954 19.1699 7.49998 19.3149 7.39473 19.4217C7.28947 19.5285 7.14706 19.5884 6.99864 19.5884H6.99631ZM6.99631 23.6718H4.66966C4.52067 23.6718 4.37778 23.6114 4.27243 23.5039C4.16708 23.3964 4.1079 23.2505 4.1079 23.0984V21.5393C4.1079 21.3873 4.16708 21.2414 4.27243 21.1339C4.37778 21.0264 4.52067 20.966 4.66966 20.966H6.99864C7.14763 20.966 7.29052 21.0264 7.39587 21.1339C7.50122 21.2414 7.5604 21.3873 7.5604 21.5393V23.0984C7.56003 23.2503 7.50068 23.3958 7.39537 23.503C7.29006 23.6102 7.14738 23.6704 6.99864 23.6704L6.99631 23.6718ZM26.3514 21.9579H24.0248C23.8758 21.9579 23.7329 21.8975 23.6275 21.79C23.5222 21.6825 23.463 21.5366 23.463 21.3845V19.825C23.463 19.6729 23.5222 19.527 23.6275 19.4195C23.7329 19.312 23.8758 19.2516 24.0248 19.2516H26.3514C26.5004 19.2516 26.6433 19.312 26.7486 19.4195C26.854 19.527 26.9132 19.6729 26.9132 19.825V21.3845C26.9132 21.5364 26.8541 21.6821 26.749 21.7896C26.6438 21.8971 26.5012 21.9577 26.3523 21.9579H26.3514Z" fill="#C3CAD2"/>
</svg>
