<svg width="19" height="13" viewBox="0 0 19 13" fill="none" xmlns="http://www.w3.org/2000/svg">
<path d="M9.15854 4.34255L6.24114 0.803932L9.15854 4.34255ZM9.15854 4.34255L9.10205 4.40831L9.48135 4.73409L9.86714 4.41603L9.81199 4.34914L12.865 0.794547C12.92 0.730252 12.987 0.678996 13.0616 0.644094C13.1362 0.609192 13.2168 0.591419 13.2982 0.59191L9.15854 4.34255ZM18.0833 7.78151C18.1124 7.80276 18.1434 7.8212 18.1758 7.83657C18.2505 7.87201 18.3314 7.89029 18.4131 7.89022C18.5584 7.89048 18.6986 7.83262 18.8061 7.728C18.8633 7.67295 18.9098 7.60635 18.943 7.53202C18.9761 7.45769 18.9952 7.37708 18.9992 7.29482C19.0032 7.21257 18.992 7.13029 18.9662 7.05269C18.9404 6.97508 18.9006 6.90369 18.8489 6.8426L18.0833 7.78151ZM18.4672 7.16552C18.4768 7.17689 18.4856 7.19192 18.4917 7.21034C18.4979 7.22897 18.5008 7.24958 18.4998 7.27064C18.4988 7.29167 18.4939 7.31137 18.4863 7.32842C18.4787 7.34537 18.4691 7.35837 18.4595 7.36763L18.4574 7.36965C18.44 7.38653 18.4241 7.39024 18.414 7.39022L18.4127 7.39022C18.4061 7.39022 18.3985 7.38882 18.39 7.3848C18.3814 7.38069 18.371 7.37345 18.3609 7.36152L18.3608 7.36137L17.9649 6.89376L17.0833 5.85246V7.21684V11.9659C17.0833 12.0099 17.0667 12.0458 17.0467 12.0672C17.0278 12.0874 17.0097 12.0918 16.9986 12.0918H2.01133C2.00026 12.0918 1.98217 12.0874 1.96325 12.0672C1.94326 12.0458 1.92663 12.0099 1.92663 11.9659V7.21189V5.86264L1.04737 6.88605L0.63735 7.3633L0.637234 7.36344C0.627129 7.37521 0.616904 7.38225 0.608467 7.38621C0.600111 7.39014 0.592604 7.39152 0.586069 7.39151L0.584591 7.39152C0.574516 7.39154 0.558411 7.3878 0.540972 7.37056L0.539762 7.36937C0.530136 7.35992 0.520549 7.34672 0.513105 7.32959C0.50568 7.3125 0.500964 7.29271 0.500131 7.27155C0.499302 7.25046 0.502424 7.22992 0.508744 7.21146C0.515067 7.19298 0.524043 7.17808 0.533637 7.16694L0.533969 7.16655L5.72684 1.12032L5.72769 1.11932C5.73779 1.1075 5.74802 1.10053 5.7564 1.09669C5.76463 1.0929 5.77194 1.09168 5.77829 1.09181L5.77828 1.09191H5.78848H5.80346C5.80992 1.09204 5.8174 1.09357 5.82572 1.09762C5.83447 1.10188 5.84496 1.10938 5.85515 1.12176L5.85535 1.122L9.09555 5.05216L9.47351 5.5106L9.86064 5.05988L13.2443 1.12033L13.2451 1.11947C13.255 1.10784 13.2651 1.10088 13.2734 1.09699C13.2816 1.09317 13.2889 1.09186 13.2952 1.0919V1.09191H13.2982H13.3098C13.3162 1.09204 13.3237 1.09356 13.332 1.09762C13.3408 1.1019 13.3513 1.10942 13.3615 1.12176L13.3618 1.12216L13.8137 1.66983L13.8137 1.66986L13.8178 1.6747L18.467 7.16527C18.4671 7.16536 18.4671 7.16544 18.4672 7.16552ZM14.1994 1.3516L13.7475 0.803932L14.1994 1.3516ZM6.72182 11.84H7.07451H7.22159H7.57451H8.90907H9.40895L9.40907 11.3401L9.41004 7.25139L9.41036 5.90128L8.53073 6.92551L8.1558 7.36207L8.15504 7.36296C8.14546 7.37417 8.13572 7.38114 8.1275 7.38524C8.11939 7.38928 8.11208 7.39089 8.1058 7.39117C8.09959 7.39145 8.09268 7.3905 8.08508 7.38751C8.07743 7.3845 8.06812 7.379 8.05853 7.36951L8.05717 7.36817C8.04751 7.35868 8.03793 7.34547 8.0305 7.32837C8.02305 7.3112 8.01835 7.29141 8.01753 7.27034C8.0167 7.24927 8.01983 7.22874 8.02616 7.21025C8.03247 7.19184 8.04144 7.17693 8.05108 7.16574L8.05151 7.16524L9.00653 6.05321L9.277 5.73827L9.01715 5.4145L6.16917 1.86588L5.78947 1.39277L5.39757 1.85583L2.21656 5.61437L2.09821 5.7542V5.93739V11.34V11.84H2.59821H3.9328H4.28646H4.4328H4.78646H6.72182ZM14.1818 11.84H14.5345H14.6818H15.0345H16.4147H16.9146L16.9147 11.3401L16.9156 5.93279L16.9157 5.75322L16.8014 5.61466L13.7125 1.86757L13.7073 1.86122L13.7018 1.85504L13.6775 1.82739L13.2947 1.39303L12.9207 1.83496L9.72214 5.61438L9.6038 5.75421V5.93739V11.34V11.84H10.1038H11.3928H11.7455H11.8928H12.2455H14.1818Z" stroke="#2F80ED"/>
</svg>
