<svg width="36" height="32" viewBox="0 0 36 32" fill="none" xmlns="http://www.w3.org/2000/svg">
<path d="M35.71 15.9688C35.71 17.0938 34.7797 17.975 33.7254 17.975H31.7409L31.7843 27.9813C31.7905 30.2 30.0105 32 27.8151 32H7.94452C5.75218 32 3.97474 30.2062 3.97474 28V17.975H1.98768C0.869493 17.975 0 17.0938 0 15.9688C0 15.4062 0.186302 14.9062 0.620801 14.4688L16.5216 0.501C16.9557 0.062625 17.4519 0 17.886 0C18.3201 0 18.8163 0.12525 19.1946 0.438375L25.7995 6.29375V4C25.7995 2.89563 26.6864 2 27.7841 2H29.7687C30.8664 2 31.7533 2.89563 31.7533 4V11.5625L35.0278 14.4688C35.524 14.9062 35.7782 15.4062 35.71 15.9688ZM15.3805 12C14.5556 12 13.892 12.6687 13.892 13.5V18.5C13.892 19.3312 14.5556 20 15.3805 20H20.3419C21.1668 20 21.8304 19.3312 21.8304 18.5V13.5C21.8304 12.6687 21.1668 12 20.3419 12H15.3805Z" fill="#0B1D26"/>
</svg>
