<svg width="25" height="25" viewBox="0 0 25 25" fill="none" xmlns="http://www.w3.org/2000/svg">
<path d="M12.5 0C5.59598 0 0 5.59598 0 12.5C0 19.404 5.59598 25 12.5 25C19.404 25 25 19.404 25 12.5C25 5.59598 19.404 0 12.5 0ZM18.0386 13.8602C17.5196 14.6974 16.8153 15.3782 16.0824 16.025C15.0756 16.9144 14.0545 17.7856 13.0386 18.6646C12.6852 18.9697 12.3135 18.9723 11.9601 18.6672C10.9377 17.783 9.91002 16.9066 8.89802 16.012C8.17553 15.373 7.49348 14.6922 6.96661 13.8745C6.20109 12.6721 6.22979 11.1802 6.22979 11.1711C6.22979 9.25012 7.78691 7.69301 9.70788 7.69301C10.1135 7.69301 10.5138 7.7856 10.8933 7.94992C11.398 8.14814 11.8284 8.46765 12.2014 8.87845C12.2992 8.98017 12.3931 9.08711 12.4817 9.19926C13.186 8.29942 14.2162 7.6578 15.2869 7.6578C17.2105 7.6578 18.7702 9.21621 18.7728 11.1385C18.7728 11.1385 18.8289 12.5887 18.0399 13.8615L18.0386 13.8602Z" fill="#0B1D26"/>
</svg>
