<svg width="37" height="23" viewBox="0 0 37 23" fill="none" xmlns="http://www.w3.org/2000/svg">
<path d="M36.7058 11.9807L27.6514 1.45629L26.7714 0.406592C26.6652 0.279719 26.5348 0.177936 26.3887 0.1079C26.2426 0.0378643 26.0841 0.00116334 25.9236 0.000216908H25.8965C25.738 -0.000723908 25.581 0.0333415 25.4357 0.100237C25.2904 0.167132 25.16 0.265373 25.053 0.388605L18.4637 7.9394L12.1538 0.406592C12.0477 0.279719 11.9173 0.177936 11.7711 0.1079C11.625 0.0378643 11.4665 0.00116334 11.306 0.000216908H11.2723C11.1112 -0.00301726 10.9513 0.0299483 10.8033 0.0969172C10.6552 0.163886 10.5224 0.263323 10.4136 0.388605L0.301186 11.9772C0.199722 12.0933 0.120999 12.2292 0.0694858 12.3774C0.0179724 12.5255 -0.00529288 12.6829 0.00100897 12.8405C0.00731082 12.9982 0.0430249 13.153 0.10618 13.296C0.169335 13.4391 0.258649 13.5676 0.369014 13.6742C0.579045 13.8785 0.854606 13.9917 1.14047 13.9911C1.29823 13.9913 1.4543 13.9569 1.59877 13.8901C1.74325 13.8233 1.87295 13.7256 1.9797 13.6032L2.77817 12.6885V21.8004C2.77817 22.1185 2.89812 22.4237 3.11166 22.6486C3.32519 22.8736 3.61481 23 3.91679 23H33.1026C33.4045 23 33.6942 22.8736 33.9077 22.6486C34.1212 22.4237 34.2412 22.1185 34.2412 21.8004V12.698L35.0121 13.5942C35.119 13.7186 35.2494 13.8179 35.395 13.8858C35.5405 13.9537 35.6979 13.9888 35.8571 13.9886C36.1401 13.9891 36.413 13.8782 36.6224 13.6777C36.7338 13.5722 36.8244 13.4446 36.8889 13.3021C36.9535 13.1596 36.9907 13.0051 36.9985 12.8475C37.0062 12.6898 36.9844 12.5321 36.9342 12.3834C36.884 12.2346 36.8063 12.0978 36.7058 11.9807ZM13.0899 20.6007H9.32099V16.5739C9.32099 16.5449 9.4268 16.4239 9.63887 16.4239H12.7734C12.9854 16.4239 13.0918 16.5459 13.0918 16.5739L13.0899 20.6007ZM17.3492 20.6007H14.7504V16.5739C14.7504 15.5242 13.8627 14.6744 12.7715 14.6744H9.63697C8.54579 14.6744 7.6586 15.5267 7.6586 16.5739V20.6007H5.05968V10.2457L11.2543 3.04183L16.8004 9.84334L14.9406 11.9747C14.8391 12.0907 14.7603 12.2267 14.7087 12.3748C14.6572 12.5229 14.6339 12.6803 14.6401 12.838C14.6464 12.9956 14.6821 13.1504 14.7452 13.2934C14.8083 13.4365 14.8976 13.565 15.008 13.6717C15.1181 13.779 15.2473 13.8623 15.3881 13.9169C15.5289 13.9714 15.6786 13.9961 15.8285 13.9895C15.9784 13.9829 16.1256 13.9452 16.2616 13.8785C16.3976 13.8117 16.5197 13.7174 16.621 13.6007L17.3511 12.764L17.3492 20.6007ZM27.6173 20.6007H23.8465V16.5739C23.8465 16.5449 23.9523 16.4239 24.1649 16.4239H27.2989C27.511 16.4239 27.6173 16.5459 27.6173 16.5739V20.6007ZM31.9654 20.6007H29.2778V16.5739C29.2778 15.5242 28.3901 14.6744 27.2989 14.6744H24.1649C23.0737 14.6744 22.186 15.5267 22.186 16.5739V20.6007H19.6758V10.2457L25.9046 3.00183L25.952 3.05482L31.9673 10.2367L31.9654 20.6007Z" fill="#C3CAD2"/>
</svg>
