<svg width="25" height="25" viewBox="0 0 25 25" fill="none" xmlns="http://www.w3.org/2000/svg">
<path d="M12.5 0C5.59646 0 0 5.59646 0 12.5C0 19.4035 5.59646 25 12.5 25C19.4035 25 25 19.4035 25 12.5C25 5.59646 19.4035 0 12.5 0ZM19.6107 15.0767C19.4344 15.2784 19.1291 15.2993 18.9274 15.123L18.4161 14.6766V17.984C18.4161 18.2519 18.199 18.4679 17.9322 18.4679H10.9879C10.7201 18.4679 10.5041 18.2508 10.5041 17.984V16.6505H6.87489C5.98991 16.6505 5.27023 15.9308 5.27023 15.0458V8.1379C5.27023 7.25291 5.98991 6.53324 6.87489 6.53324H11.9302C12.8152 6.53324 13.5349 7.25291 13.5349 8.1379V10.7973L14.1785 10.244C14.2711 10.1636 14.3868 10.1261 14.5025 10.1272C14.6171 10.1272 14.7329 10.1658 14.8254 10.2462L18.2519 13.2472C18.2519 13.2472 18.2541 13.2494 18.2552 13.2505L19.5645 14.3945C19.7661 14.5708 19.7871 14.8761 19.6107 15.0778V15.0767ZM13.5327 12.0768L11.4717 13.8501V17.5002H12.6818V15.7578C12.6818 15.2497 13.1447 14.8376 13.7134 14.8376H15.2079C15.7765 14.8376 16.2394 15.2508 16.2394 15.7578V17.5002H17.4495V13.8313L14.497 11.2546L13.5338 12.0768H13.5327ZM12.5672 8.1379C12.5672 7.78633 12.2818 7.50088 11.9302 7.50088H6.87489C6.52332 7.50088 6.23788 7.78633 6.23788 8.1379V15.0458C6.23788 15.3974 6.52332 15.6829 6.87489 15.6829H10.5041V14.6833L9.99052 15.1252C9.89905 15.2035 9.78663 15.242 9.67532 15.242C9.53976 15.242 9.40421 15.1847 9.30832 15.0734C9.13419 14.8706 9.15734 14.5653 9.35902 14.3912L10.5989 13.3244C10.6209 13.2946 10.6452 13.2671 10.6738 13.2428L12.5672 11.6271V8.1379ZM8.57212 14.5069H7.40831C7.1405 14.5069 6.92448 14.2898 6.92448 14.0231C6.92448 13.7564 7.1416 13.5393 7.40831 13.5393H8.57212C8.83993 13.5393 9.05594 13.7564 9.05594 14.0231C9.05594 14.2898 8.83883 14.5069 8.57212 14.5069ZM10.5041 12.9023H7.40831C7.1405 12.9023 6.92448 12.6852 6.92448 12.4184C6.92448 12.1517 7.1416 11.9346 7.40831 11.9346H10.5041C10.7719 11.9346 10.9879 12.1517 10.9879 12.4184C10.9879 12.6852 10.7708 12.9023 10.5041 12.9023ZM11.4497 11.3108H7.40831C7.1405 11.3108 6.92448 11.0937 6.92448 10.827C6.92448 10.5603 7.1416 10.3432 7.40831 10.3432H11.4497C11.7175 10.3432 11.9335 10.5603 11.9335 10.827C11.9335 11.0937 11.7164 11.3108 11.4497 11.3108ZM11.4497 9.64557H7.40831C7.1405 9.64557 6.92448 9.42845 6.92448 9.16174C6.92448 8.89504 7.1416 8.67793 7.40831 8.67793H11.4497C11.7175 8.67793 11.9335 8.89504 11.9335 9.16174C11.9335 9.42845 11.7164 9.64557 11.4497 9.64557ZM13.7134 15.8063C13.6859 15.8063 13.6649 15.8118 13.6506 15.8173V17.5013H15.2718V15.8173C15.2575 15.8118 15.2354 15.8063 15.2079 15.8063H13.7134Z" fill="#0B1D26"/>
</svg>
