<svg width="25" height="25" viewBox="0 0 25 25" fill="none" xmlns="http://www.w3.org/2000/svg">
<path d="M12.5 0C5.59711 0 0 5.59586 0 12.5C0 19.4041 5.59711 25 12.5 25C19.4029 25 25 19.4041 25 12.5C25 5.59586 19.4041 0 12.5 0ZM17.3641 9.27592C18.2673 9.27592 19.0003 10.009 19.0003 10.9134C19.0003 11.8179 18.2673 12.5509 17.3641 12.5509C16.4608 12.5509 15.7266 11.8167 15.7266 10.9134C15.7266 10.0102 16.4596 9.27592 17.3641 9.27592ZM12.5 7.03087C13.8567 7.03087 14.955 8.1304 14.955 9.48588C14.955 10.8414 13.8567 11.9409 12.5 11.9409C11.1433 11.9409 10.045 10.8426 10.045 9.48588C10.045 8.12916 11.1445 7.03087 12.5 7.03087ZM7.63592 9.27592C8.5404 9.27592 9.27219 10.009 9.27219 10.9134C9.27219 11.8179 8.53916 12.5509 7.63592 12.5509C6.73268 12.5509 5.99965 11.8167 5.99965 10.9134C5.99965 10.0102 6.73144 9.27592 7.63592 9.27592ZM8.20122 15.2631H5.57847C5.26787 15.2631 5.0169 15.0122 5.0169 14.7016V13.7536C5.0169 13.2392 5.36726 12.7895 5.86671 12.664L6.48917 12.5087C7.01223 12.8852 7.79122 13.0256 8.49319 12.6802C8.30434 12.9933 8.19625 13.361 8.19625 13.7474V15.1687C8.19625 15.1998 8.1975 15.2321 8.19998 15.2631H8.20122ZM16.4285 15.1687C16.4285 15.6346 16.0508 16.0111 15.5862 16.0111H9.41258C8.94792 16.0111 8.57022 15.6359 8.57022 15.1687V13.7474C8.57022 12.9759 9.09577 12.3025 9.84495 12.1149L10.7805 11.8813C11.6738 12.5236 13.0678 12.7075 14.217 11.8813L15.1526 12.1149C15.9017 12.3025 16.4273 12.9759 16.4273 13.7474V15.1687H16.4285ZM19.9831 14.7016C19.9831 15.0122 19.7321 15.2631 19.4215 15.2631H16.7988C16.8013 15.2321 16.8025 15.1998 16.8025 15.1687V13.7474C16.8025 13.3598 16.6944 12.992 16.5031 12.6777C17.0858 12.9585 17.8561 12.9796 18.5096 12.5099L19.1333 12.6652C19.6327 12.7907 19.9831 13.2405 19.9831 13.7548V14.7028V14.7016Z" fill="#0B1D26"/>
</svg>
